# xmcd
#
# Track frame offsets:
#	150
#	13044
#	26351
#	44708
#	58988
#	72098
#	84008
#	95084
#	108719
#	120369
#	133597
#	149671
#	158701
#	175100
#
# Disc length: 2441 seconds
#
# Revision: 1
# Processed by: cddbd v1.5.2PL0 Copyright (c) Steve Scherf et al.
# Submitted via: audiograbber 1.83.01
#
DISCID=bf09870e
DTITLE=Chris Jones and The Night Drivers - Cloud Of Dust
DYEAR=2009
DGENRE=Bluegrass
TTITLE0=The Love She Left Behind
TTITLE1=Cloud of Dust
TTITLE2=What You Do
TTITLE3=I'd Rather Love You
TTITLE4=Cold Lonesome Night
TTITLE5=One Door Away
TTITLE6=Flat Creek
TTITLE7=Silent Goodbye
TTITLE8=Last Nail
TTITLE9=Draw For 5
TTITLE10=Cowboys Ain't Supposed To Cry
TTITLE11=Come On Little Children
TTITLE12=Pretty Saro
TTITLE13=Bluegrass DJs
EXTD=
EXTT0=
EXTT1=
EXTT2=
EXTT3=
EXTT4=
EXTT5=
EXTT6=
EXTT7=
EXTT8=
EXTT9=
EXTT10=
EXTT11=
EXTT12=
EXTT13=
PLAYORDER=
